<svg xmlns="http://www.w3.org/2000/svg" width="457" height="457" viewBox="183 168 457 463">
<path fill="#00d557" fill-rule="evenodd" d="M 407 168 L 302 301 L 407 323 L 407 169 L 407 168 zM 417 169 L 416 323 L 523 304 L 417 169 L 417 169 zM 416 333 L 523 314 L 416 607 L 416 334 L 416 333 zM 407 333 L 406 606 L 302 311 L 407 333 L 407 333 zM 183 375 L 260 472 L 187 498 L 183 375 L 183 375 zM 191 369 L 264 463 L 308 401 L 191 369 L 191 369 zM 266 479 L 191 507 L 385 631 L 266 479 L 266 479 zM 271 471 L 316 407 L 394 627 L 271 471 L 271 471 zM 633 368 L 515 401 L 559 463 L 633 368 zM 640 375 L 567 468 L 638 500 L 640 375 zM 561 476 L 631 508 L 443 626 L 561 476 zM 435 619 L 509 408 L 553 471 L 435 619 z"/>
<style>
</style>
</svg>